<?xml version="1.0" encoding="UTF-8"?>
<!DOCTYPE svg PUBLIC "-//W3C//DTD SVG 1.1//EN" "http://www.w3.org/Graphics/SVG/1.1/DTD/svg11.dtd">
<!-- Creator: CorelDRAW -->
<svg xmlns="http://www.w3.org/2000/svg" xml:space="preserve" width="122.432mm" height="127.388mm" version="1.1" style="shape-rendering:geometricPrecision; text-rendering:geometricPrecision; image-rendering:optimizeQuality; fill-rule:evenodd; clip-rule:evenodd"
viewBox="0 0 12546.93 13054.77"
 xmlns:xlink="http://www.w3.org/1999/xlink"
 xmlns:xodm="http://www.corel.com/coreldraw/odm/2003">
 <defs>
  <style type="text/css">
   <![CDATA[
    .fil0 {fill:#D9DADA}
   ]]>
  </style>
 </defs>
 <g id="Layer_x0020_1">
  <metadata id="CorelCorpID_0Corel-Layer"/>
  <path class="fil0" d="M6059.54 720.37c114.72,-351.65 -150.91,-660.61 -427.16,-712.68 -246.86,-46.55 -763.99,130.62 -985.51,209.07 -1682.22,595.75 -3084.13,1598 -3925.69,3243.53 -1267.15,2477.72 -771.4,5590.84 762.06,7387.22 652.75,764.67 1532.08,1527.01 2855.47,1926.87 1341.97,405.46 2833.63,356.01 4158.9,-50.47 1314.46,-403.16 2265.32,-1089.25 2884.93,-1895.97 2161.75,-2814.61 1360.11,-8532.58 -2796.44,-9217.89 -2502.92,-412.68 -5102.39,1276.67 -5737.51,3720.32 -732.61,2818.75 1326.54,5370.69 4124.55,5085.67 921.41,-93.86 1830.28,-536.83 2412.93,-1164.48 1118.16,-1204.48 1228.97,-3196.71 98.63,-4241.06 -963.77,-890.44 -2576.82,-914.45 -3394.74,104.49 -323.62,403.15 -621.2,1164.66 -411.86,1826.9 273.88,866.43 1441.47,1532.99 2210.58,1232.92 256.47,-100.06 489.8,-435.5 313.06,-783.37 -232.84,-458.25 -673.29,-261.93 -876.37,-316.32 -262.13,-70.2 -579.2,-333.25 -571.22,-637.37 35.58,-1356.51 2364.23,-1340.44 2386.71,548.55 15.58,1309.51 -1196.39,2282.48 -2504.1,2307.96 -2682.24,52.25 -3521.54,-3044.51 -2089.28,-4913.36 250.45,-326.79 578.76,-662.79 908.57,-900.99 2058.54,-1486.64 4762.16,-856.53 5655.92,1712.52 441.24,1268.34 367.71,2847.9 -130.31,4039.07 -483.86,1157.31 -1285.02,1815.27 -2493.11,2287.03 -2021.5,789.4 -4323.08,481.73 -5853.71,-1111.92 -57.47,-59.84 -82.94,-76.99 -148.23,-141.6 -62.61,-61.95 -74.12,-93.25 -129.69,-162.1 -1433.11,-1775.66 -1609.88,-4426.41 -461.78,-6404.17 571.88,-985.13 1534.2,-1721.53 2590.72,-2190.23 857.01,-380.19 1420.05,-317.27 1573.68,-788.16z"/>
 </g>
</svg>
